<?xml version="1.0" encoding="UTF-8" standalone="no"?>
<!-- Created with Inkscape (http://www.inkscape.org/) -->
<svg
   xmlns:dc="http://purl.org/dc/elements/1.1/"
   xmlns:cc="http://web.resource.org/cc/"
   xmlns:rdf="http://www.w3.org/1999/02/22-rdf-syntax-ns#"
   xmlns:svg="http://www.w3.org/2000/svg"
   xmlns="http://www.w3.org/2000/svg"
   xmlns:sodipodi="http://sodipodi.sourceforge.net/DTD/sodipodi-0.dtd"
   xmlns:inkscape="http://www.inkscape.org/namespaces/inkscape"
   width="545.27954"
   height="135.2126"
   id="svg2374"
   sodipodi:version="0.32"
   inkscape:version="0.44"
   version="1.0"
   sodipodi:docbase="C:\Dokumente und Einstellungen\Andreas\Eigene Dateien\Eigene Bilder\sonstiges\Logos\Vektor\Computer, Electronics"
   sodipodi:docname="Xerox-Logo.svg">
  <defs
     id="defs2376" />
  <sodipodi:namedview
     id="base"
     pagecolor="#ffffff"
     bordercolor="#666666"
     borderopacity="1.0"
     inkscape:pageopacity="0.0"
     inkscape:pageshadow="2"
     inkscape:zoom="0.35"
     inkscape:cx="350"
     inkscape:cy="520"
     inkscape:document-units="px"
     inkscape:current-layer="layer1"
     width="153.89mm"
     height="38.16mm"
     units="mm"
     inkscape:window-width="904"
     inkscape:window-height="574"
     inkscape:window-x="69"
     inkscape:window-y="69" />
  <metadata
     id="metadata2379">
    <rdf:RDF>
      <cc:Work
         rdf:about="">
        <dc:format>image/svg+xml</dc:format>
        <dc:type
           rdf:resource="http://purl.org/dc/dcmitype/StillImage" />
      </cc:Work>
    </rdf:RDF>
  </metadata>
  <g
     inkscape:label="Ebene 1"
     inkscape:groupmode="layer"
     id="layer1"
     transform="translate(96.8832,-350.0101)">
    <g
       id="g2419"
       transform="translate(3.546669,3.53586)">
      <path
         id="path31"
         class="ps02"
         d="M -0.67114127,476.29391 L -39.757272,406.88424 L -9.6909944,351.86717 L -21.717523,351.86717 L -48.777168,395.74152 L -72.830182,351.86717 L -93.876564,351.86717 L -60.803654,411.527 L -96.883196,476.29391 L -84.856667,476.29391 L -54.79039,422.66971 L -24.724155,476.29391 L -0.67114127,476.29391"
         style="fill:#e92a31;fill-rule:nonzero;stroke:none" />
      <path
         id="path33"
         class="ps02"
         d="M 11.355387,351.86717 L 86.52106,351.86717 L 86.52106,360.92064 L 29.395137,360.92064 L 29.395137,407.11638 L 86.52106,407.11638 L 86.52106,415.24125 L 29.395137,415.24125 L 29.395137,467.24048 L 86.52106,467.24048 L 86.52106,476.29391 L 11.355387,476.29391 L 11.355387,351.86717"
         style="fill:#e92a31;fill-rule:nonzero;stroke:none" />
      <path
         id="path35"
         class="ps02"
         d="M 152.66684,360.92064 L 125.60719,360.92064 L 125.60719,476.29391 L 104.56081,476.29391 L 104.56081,351.86717 L 155.67347,351.86717 C 173.71322,351.86717 185.73975,357.67066 185.73975,384.13458 C 185.73975,409.43776 173.71322,415.24125 158.6801,415.24125 L 194.7596,476.29391 L 170.70659,476.29391 L 131.62046,407.11638 L 155.67347,407.11638 C 164.69332,407.11638 167.69995,394.11656 167.69995,384.13458 C 167.69995,374.15255 164.69332,360.92064 155.67347,360.92064"
         style="fill:#e92a31;fill-rule:nonzero;stroke:none" />
      <path
         id="path43"
         class="ps02"
         d="M 408.23009,476.29391 L 369.14396,406.88424 L 399.21024,351.86717 L 387.18371,351.86717 L 360.12406,395.74152 L 336.07105,351.86717 L 315.02467,351.86717 L 348.09758,411.527 L 312.01804,476.29391 L 324.04456,476.29391 L 354.1108,422.66971 L 384.17708,476.29391 L 408.23009,476.29391"
         style="fill:#e92a31;fill-rule:nonzero;stroke:none" />
      <path
         id="path45"
         class="ps02"
         d="M 221.81925,415.00911 C 221.81925,381.58101 224.82588,358.59921 254.89216,358.59921 C 284.95839,358.59921 287.96502,381.58101 287.96502,415.00911 C 287.96502,448.43717 284.95839,469.32973 254.89216,469.32973 C 224.82588,469.32973 221.81925,448.43717 221.81925,415.00911 C 221.81925,390.86662 221.81925,439.1516 221.81925,415.00911 z M 309.0114,415.00911 C 309.0114,367.88478 299.99155,350.01006 254.89216,350.01006 C 209.79276,350.01006 200.77286,367.88478 200.77286,415.00911 C 200.77286,462.36554 209.79276,478.15102 254.89216,478.15102 C 299.99155,478.15102 309.0114,462.36554 309.0114,415.00911"
         style="fill:#e92a31;fill-rule:nonzero;stroke:none" />
      <path
         id="path47"
         class="ps02"
         d="M 426.26984,444.02655 C 432.2831,444.02655 438.29637,450.52641 438.29637,458.65133 C 438.29637,466.77621 432.2831,473.50825 426.26984,473.50825 C 417.24999,473.50825 411.23672,467.00835 411.23672,458.65133 C 411.23672,450.52641 417.24999,444.02655 426.26984,444.02655 z M 426.26984,441.24085 C 414.24335,441.24085 408.23009,448.90145 408.23009,458.88347 C 408.23009,468.63331 414.24335,476.29391 426.26984,476.29391 C 435.28974,476.29391 441.303,468.40117 441.303,458.88347 C 441.303,448.90145 435.28974,441.24085 426.26984,441.24085 z M 417.24999,468.63331 L 423.26325,468.63331 L 423.26325,460.74057 L 426.26984,460.74057 C 426.26984,460.74057 426.26984,461.20485 426.26984,462.36554 C 426.26984,462.59768 429.27647,467.70476 429.27647,468.63331 L 432.2831,468.63331 C 432.2831,467.70476 432.2831,464.91906 432.2831,463.52623 C 432.2831,460.97271 432.2831,459.11561 429.27647,458.88347 C 429.27647,458.41919 432.2831,457.72274 432.2831,454.24066 C 432.2831,448.90145 426.26984,448.90145 426.26984,448.90145 L 417.24999,448.90145 L 417.24999,468.63331 z M 423.26325,452.15142 L 426.26984,452.15142 C 426.26984,452.15142 429.27647,452.15142 429.27647,454.70494 C 429.27647,455.86563 426.26984,457.4906 426.26984,457.4906 L 423.26325,457.4906 L 423.26325,452.15142"
         style="fill:#e92a31;fill-rule:nonzero;stroke:none" />
    </g>
  </g>
</svg>
